<?xml version="1.0" standalone="no"?>
<!DOCTYPE svg PUBLIC "-//W3C//DTD SVG 20010904//EN"
 "http://www.w3.org/TR/2001/REC-SVG-20010904/DTD/svg10.dtd">
<svg version="1.0" xmlns="http://www.w3.org/2000/svg"
 width="600.000000pt" height="900.000000pt" viewBox="0 0 600.000000 900.000000"
 preserveAspectRatio="xMidYMid meet">
<g transform="translate(0.000000,900.000000) scale(0.050000,-0.050000)"
fill="#000000" stroke="none">
<path d="M6580 15247 c-1295 -117 -2875 -468 -3343 -740 -230 -135 -414 -406
-498 -737 -85 -337 -204 -1853 -281 -3590 -33 -746 -47 -3698 -20 -4027 56
-668 217 -1023 550 -1211 365 -207 1136 -454 1654 -530 916 -135 3524 -110
4103 39 635 164 1058 655 1155 1339 87 611 79 5536 -11 6689 -104 1344 -185
1495 -1063 1996 -134 77 -271 163 -305 191 -129 109 -874 497 -1051 549 -99
29 -693 50 -890 32z m740 -168 c160 -26 188 -49 80 -67 -62 -10 -104 -35 -169
-102 l-87 -90 -91 41 c-242 107 -778 82 -1763 -83 -1033 -173 -1510 -314
-1730 -512 l-94 -85 -47 50 c-33 35 -67 49 -122 49 -110 0 -96 25 58 105 697
364 3246 810 3965 694z m313 -202 c110 -103 66 -285 -86 -359 -147 -71 -287 5
-287 156 0 207 234 334 373 203z m345 -227 c142 -289 215 -1036 262 -2700 41
-1442 14 -5231 -40 -5809 -49 -513 -249 -884 -563 -1043 -687 -346 -3743 -379
-4487 -48 l-100 45 97 15 c63 10 121 35 163 73 l65 57 115 -52 c527 -242 3008
-216 3556 36 l135 62 55 -52 c227 -217 644 -8 644 323 0 89 -67 230 -129 271
l-48 31 57 105 c79 146 137 390 160 670 41 513 66 3083 42 4466 -40 2351 -85
2856 -282 3167 l-58 92 58 34 c113 67 198 249 171 365 -7 28 -17 70 -23 92
-17 69 85 -67 150 -200z m-984 12 c84 -37 109 -60 127 -115 31 -92 105 -176
184 -208 254 -100 347 -458 395 -1529 65 -1442 64 -5245 -1 -6115 -37 -492
-141 -766 -308 -810 -111 -30 -243 -171 -261 -278 -21 -121 -24 -127 -123
-170 -551 -244 -3133 -264 -3494 -27 -34 22 -53 58 -62 119 -18 123 -85 213
-196 266 -157 75 -224 265 -245 695 -6 132 -16 274 -21 315 -14 110 13 91 79
-56 458 -1026 1898 -1552 3014 -1101 1987 802 2077 3884 137 4711 -754 322
-2200 171 -2268 -236 -12 -67 -30 -90 -117 -149 -280 -187 -569 -526 -735
-864 l-98 -200 0 150 c-2 727 117 3326 180 3960 35 349 124 627 223 697 74 52
112 107 154 222 97 267 381 392 1262 560 1136 215 1925 275 2174 163z m1309
-280 c30 -44 103 -105 170 -142 64 -36 162 -99 217 -140 217 -160 235 -136
106 137 -33 69 -55 131 -49 136 18 18 136 -158 206 -308 38 -80 76 -145 86
-145 48 0 441 -289 441 -324 0 -53 -75 -24 -242 92 -102 72 -190 127 -194 123
-4 -4 7 -105 24 -224 106 -733 135 -1515 146 -3997 13 -2882 -12 -3646 -134
-3999 l-38 -111 54 -13 c30 -8 99 -35 154 -60 55 -26 125 -47 156 -47 47 0 56
-7 50 -45 -10 -70 -108 -69 -273 4 -176 77 -172 77 -236 -24 -122 -195 -321
-375 -502 -455 -140 -62 -148 -36 -14 39 142 80 320 259 396 400 l55 101 -76
0 c-42 0 -164 32 -272 70 -108 39 -213 70 -235 70 -45 0 -52 55 -14 106 23 30
44 25 253 -57 167 -67 249 -89 310 -85 l82 6 35 130 c205 747 182 6782 -31
8118 l-24 148 -80 24 c-44 13 -156 75 -250 138 -93 63 -195 120 -225 126 -44
9 -59 27 -77 93 -12 46 -30 108 -39 138 -23 76 1 67 64 -23z m-5004 -201 c50
-27 88 -130 72 -196 -36 -143 -216 -219 -301 -125 -123 135 70 406 229 321z
m5295 -412 c137 -87 135 -83 165 -339 78 -659 87 -1039 96 -4020 11 -3835 19
-3724 -276 -3621 -198 69 -187 33 -156 494 38 569 39 5850 1 6477 -14 237 -31
592 -38 789 l-12 360 48 -31 c26 -16 104 -65 172 -109z m-5532 -84 l74 -29
-37 -83 c-135 -307 -230 -1767 -288 -4433 -45 -2047 -15 -3023 101 -3265 l33
-70 -82 -75 c-53 -48 -86 -97 -95 -142 -19 -102 -37 -83 -75 78 -146 617 -110
4130 68 6694 51 746 103 1262 142 1409 l20 78 33 -67 c21 -44 57 -76 106 -95z
m6486 -303 c24 -38 93 -532 125 -892 30 -330 35 -765 42 -3310 8 -3188 3
-3373 -99 -3645 -27 -70 -33 -69 -168 17 l-113 72 11 143 c6 79 23 251 37 383
21 186 27 842 27 2920 0 2646 -8 3057 -72 3888 -28 351 -18 402 72 402 37 0
73 9 80 20 15 25 44 26 58 2z m-4261 -3058 c41 -65 -59 -101 -337 -123 -265
-20 -567 -77 -651 -121 -37 -20 -79 21 -79 78 0 78 1023 238 1067 166z m378
-25 c130 -36 89 -64 -71 -49 -121 12 -150 8 -172 -18 -33 -39 -82 -42 -82 -4
0 77 169 114 325 71z m352 -60 c1123 -427 1668 -1766 1231 -3023 -309 -887
-950 -1437 -1803 -1546 -162 -21 -128 23 40 51 364 61 900 380 1167 694 1010
1190 738 3046 -534 3651 -162 77 -218 127 -218 195 0 24 -8 26 117 -22z m-649
-111 c7 -17 12 -111 12 -208 l0 -176 105 -60 c1096 -622 1072 -2521 -40 -3190
l-105 -63 0 -183 c0 -148 -7 -192 -37 -229 -65 -81 -83 -34 -83 219 0 263 -5
252 160 347 1065 610 1056 2505 -15 3032 l-105 51 0 233 c0 128 6 238 13 246
25 24 83 13 95 -19z m530 -197 c1075 -715 1158 -2499 162 -3491 -331 -330
-560 -424 -560 -230 0 102 11 117 206 268 1015 786 1009 2562 -11 3277 l-155
108 0 95 c0 168 74 162 358 -27z m-1652 -146 l-10 -215 -73 -60 c-983 -807
-1011 -2387 -53 -2951 l120 -71 5 -239 c6 -268 -9 -319 -74 -260 -36 33 -41
61 -41 231 l0 194 -115 77 c-928 615 -937 2191 -17 3015 l152 137 0 187 c0
193 13 223 83 188 28 -15 31 -47 23 -233z m794 68 c0 -123 31 -232 76 -268 18
-14 24 -25 14 -25 -38 0 109 -129 261 -228 404 -265 550 -576 548 -1172 0
-383 -17 -483 -115 -718 -35 -81 -57 -157 -50 -168 7 -11 3 -14 -9 -7 -12 7
-39 -16 -60 -52 -85 -143 -214 -282 -361 -388 -85 -61 -191 -152 -237 -203
l-82 -91 -98 61 c-160 101 -290 102 -413 6 -71 -56 -95 -51 -185 42 -43 45
-130 117 -192 160 -569 389 -686 1429 -240 2118 39 61 72 115 72 122 1 6 64
66 141 133 278 240 333 328 346 549 8 136 14 157 52 168 66 22 353 64 447 66
l85 2 0 -107z m-1080 -61 c0 -83 -8 -97 -166 -255 -889 -895 -870 -2344 42
-3135 199 -173 178 -373 -27 -252 -1063 622 -1147 2537 -156 3514 260 256 307
276 307 128z m2692 -377 c158 -215 274 -477 351 -795 36 -147 37 -728 2 -763
-20 -20 -25 19 -25 194 0 511 -140 1016 -379 1368 -109 159 -67 156 51 -4z
m170 -2343 c-55 -111 -132 -250 -171 -309 -39 -58 -71 -113 -71 -120 0 -8 -27
-30 -60 -50 -33 -19 -60 -44 -60 -54 0 -11 -9 -19 -19 -19 -10 0 27 70 84 155
126 190 275 503 338 708 l47 154 6 -131 c6 -122 -1 -144 -94 -334z m-1965
-677 c93 -86 214 -432 168 -478 -29 -29 -403 -45 -525 -23 -114 21 -120 51
-50 257 97 289 254 384 407 244z m2785 -693 c153 -154 -20 -439 -231 -380
-117 33 -172 149 -133 278 46 156 252 213 364 102z m-4461 -43 c91 -48 124
-200 66 -299 -86 -146 -279 -124 -346 38 -68 164 125 344 280 261z m5161 -393
c159 -62 163 -74 67 -173 -39 -40 -66 -82 -59 -94 7 -11 2 -18 -12 -14 -26 5
-118 -115 -118 -155 0 -14 27 -59 61 -101 33 -42 53 -83 45 -91 -46 -45 -1689
-99 -1876 -62 -91 18 -44 27 500 96 589 74 918 238 1169 583 57 78 52 78 223
11z m861 -209 c99 -30 97 -62 -8 -139 -208 -151 -486 -256 -548 -205 -20 17
-26 24 -12 17 33 -17 186 97 322 238 115 120 127 124 246 89z"/>
<path d="M4791 13948 c-43 -43 -47 -958 -4 -974 65 -25 83 22 93 244 12 253
48 322 171 322 83 0 89 -18 89 -269 0 -215 19 -266 87 -239 52 20 48 474 -5
560 -61 100 -193 101 -297 3 l-45 -42 0 201 c0 213 -22 261 -89 194z"/>
<path d="M4080 13889 c-49 -28 -102 -66 -116 -85 -25 -32 -28 -32 -54 3 -39
53 -99 34 -106 -33 -4 -31 2 -68 14 -81 15 -18 7 -60 -28 -144 -172 -417 165
-802 550 -627 201 91 360 350 360 587 0 161 -90 338 -166 327 -24 -4 -64 16
-96 49 -75 76 -228 77 -358 4z m248 -81 c44 -17 40 -94 -6 -136 -103 -94 -382
-58 -302 39 66 78 225 129 308 97z m229 -180 c133 -392 -378 -817 -617 -513
-138 174 -84 484 69 405 162 -82 392 -5 452 152 26 69 63 52 96 -44z"/>
<path d="M6459 13835 c-183 -124 -215 -451 -56 -584 117 -98 396 -32 429 101
17 67 -20 107 -68 72 -167 -120 -220 -130 -295 -55 -86 86 -67 102 145 128
210 26 246 43 246 116 0 213 -227 339 -401 222z m240 -128 c53 -68 42 -77
-126 -106 -161 -27 -166 -24 -124 56 59 115 180 139 250 50z"/>
<path d="M5883 13730 c-77 -69 -78 -69 -113 -30 -54 60 -197 55 -261 -9 -35
-35 -49 -40 -49 -19 0 41 -54 58 -90 28 -41 -34 -44 -603 -3 -637 62 -52 90
16 97 240 7 239 45 317 155 317 88 0 101 -32 101 -252 0 -231 9 -268 61 -268
60 0 79 65 75 254 -5 211 9 257 84 296 141 73 177 22 184 -261 6 -219 6 -219
56 -219 l50 0 6 229 c9 387 -138 525 -353 331z"/>
<path d="M6470 12723 c-170 -54 -231 -265 -112 -385 155 -154 413 35 342 251
-33 101 -140 163 -230 134z"/>
<path d="M5266 12585 c-71 -12 -161 -110 -177 -192 -46 -249 272 -350 381
-121 81 172 -29 341 -204 313z"/>
<path d="M4010 12417 c-134 -66 -163 -262 -55 -359 142 -126 326 -14 324 198
-1 144 -139 226 -269 161z"/>
<path d="M6470 11918 c-3089 -343 -2791 -305 -2836 -360 -37 -46 -33 -126 8
-168 25 -25 200 -19 530 20 142 16 681 71 1198 120 517 49 1071 103 1230 120
160 16 306 29 325 30 105 1 158 188 71 249 -54 38 -94 37 -526 -11z m470 -97
c0 -61 -8 -62 -657 -123 -1022 -95 -1489 -62 -593 42 1133 132 1250 140 1250
81z"/>
</g>
</svg>
