<?xml version="1.0" standalone="no"?>
<!DOCTYPE svg PUBLIC "-//W3C//DTD SVG 20010904//EN"
 "http://www.w3.org/TR/2001/REC-SVG-20010904/DTD/svg10.dtd">
<svg version="1.0" xmlns="http://www.w3.org/2000/svg"
 width="600.000000pt" height="600.000000pt" viewBox="0 0 600.000000 600.000000"
 preserveAspectRatio="xMidYMid meet">
<g transform="translate(0.000000,600.000000) scale(0.050000,-0.050000)"
fill="#000000" stroke="none">
<path d="M980 11575 c-1 -3 -3 -1083 -5 -2400 l-5 -2395 263 0 c288 0 286 -1
287 135 0 41 9 45 110 45 l110 0 0 -322 c0 -1912 911 -3325 2662 -4128 l173
-79 13 -157 c81 -966 642 -1615 1442 -1668 605 -39 1144 311 1376 894 l51 130
262 14 c2036 109 3392 1292 3543 3092 106 1264 -617 3746 -1390 4771 -1131
1499 -3551 1710 -4857 424 -593 -584 -904 -1252 -1252 -2691 -423 -1752 -205
-3050 680 -4054 185 -209 168 -213 -140 -37 -1373 789 -2080 1926 -2118 3407
l-10 406 127 -6 128 -6 6 -85 6 -85 259 0 259 0 0 2400 0 2400 -990 0 c-545 0
-990 -2 -990 -5z m1536 -145 c4 -4 -9 -30 -29 -58 l-37 -51 -484 0 -483 -1
-41 57 c-22 32 -37 61 -33 65 10 10 1097 -1 1107 -12z m299 -2225 l5 -2245
-87 0 c-121 0 -182 53 -214 182 -43 181 -34 178 -540 178 -514 0 -503 3 -550
-171 -42 -155 -83 -191 -223 -196 l-96 -3 -4 2246 -5 2246 85 -6 c80 -6 89
-13 172 -141 l89 -136 521 6 521 5 85 130 c86 131 124 161 196 154 40 -4 40
-21 45 -2249z m4853 1285 c685 -91 546 -129 -468 -129 -831 0 -965 8 -846 55
232 92 897 130 1314 74z m-486 -360 l1161 0 -6 150 c-6 138 -3 150 33 150 61
0 72 -213 82 -1626 l9 -1246 -59 -59 -59 -59 -361 0 c-308 0 -362 4 -362 30 0
25 50 30 328 30 293 0 333 4 375 38 l47 39 3 1156 c4 1303 6 1272 -64 1304
-103 47 -2221 31 -2269 -17 -39 -39 -40 -67 -40 -1231 l0 -1191 49 -49 c48
-48 55 -49 385 -48 l336 0 -119 65 c-990 535 -640 2031 489 2089 1161 60 1640
-1530 624 -2071 -176 -94 -193 -40 -19 62 535 316 628 1147 177 1594 -647 643
-1739 195 -1742 -713 0 -392 150 -661 508 -910 75 -52 99 -81 101 -122 l2 -55
-386 0 c-384 0 -387 0 -436 49 l-49 49 2 1236 c2 1361 11 1617 58 1646 26 16
31 -4 36 -136 l5 -154 1161 0z m1603 92 c703 -411 1054 -981 1361 -2212 420
-1677 508 -3015 254 -3834 -268 -863 -993 -1572 -1960 -1917 -280 -100 -880
-226 -880 -185 2 76 28 106 94 106 565 0 1458 428 1977 948 874 876 1028 1928
597 4072 -354 1760 -688 2437 -1444 2930 -257 167 -256 242 1 92z m-3379 -217
c-352 -343 -538 -735 -606 -1278 -28 -217 -27 -6081 0 -6347 21 -199 85 -558
113 -631 9 -24 5 -32 -15 -25 -65 21 -165 464 -198 880 -29 361 -27 5648 2
6014 48 616 286 1121 677 1439 138 112 157 75 27 -52z m412 -1265 c1 -1562
-64 -1420 648 -1420 573 0 507 120 520 -940 12 -968 32 -1313 117 -2060 66
-578 93 -1240 67 -1651 l-14 -234 -183 13 c-647 49 -1297 318 -1793 742 l-163
139 9 2591 c6 1765 16 2644 32 2760 54 404 181 724 388 980 96 118 321 320
357 320 8 0 15 -558 15 -1240z m2935 1052 c539 -427 734 -784 1017 -1872 567
-2171 598 -3388 107 -4198 -420 -692 -1167 -1155 -2044 -1266 -228 -29 -212
-41 -189 144 35 274 6 1114 -61 1740 -95 896 -141 1769 -135 2590 4 417 -30
390 480 390 688 0 632 -125 632 1408 0 656 7 1192 16 1192 8 0 88 -58 177
-128z m-2423 65 c105 -48 71 -217 -44 -217 -136 0 -173 181 -46 226 17 6 32
12 34 12 2 1 27 -9 56 -21z m1837 -18 c126 -99 -5 -255 -148 -178 -57 30 -53
147 5 188 59 41 80 39 143 -10z m-799 -411 c26 -10 32 -46 32 -180 l0 -168
-210 0 -210 0 0 156 c0 95 9 165 24 180 25 25 306 34 364 12z m-740 -273 c28
-45 -5 -103 -66 -112 -83 -12 -134 77 -77 134 34 34 116 21 143 -22z m1284 -5
c20 -81 -3 -113 -77 -106 -109 10 -106 156 4 156 48 0 63 -11 73 -50z m-336
-158 c275 -145 367 -590 182 -882 -77 -121 -82 -114 -146 200 -78 380 -172
488 -423 490 -237 1 -333 -125 -411 -535 -51 -270 -54 -274 -127 -179 -182
239 -142 657 81 853 l71 63 294 -12 c172 -7 318 -4 353 7 33 11 63 20 66 21 3
1 30 -11 60 -26z m-2998 -395 c-16 -141 -28 -904 -36 -2407 l-12 -2200 -77
160 c-520 1082 -482 2973 91 4556 56 156 62 136 34 -109z m2782 63 c78 -56
113 -125 152 -304 18 -80 37 -168 43 -194 11 -48 10 -48 -67 13 -166 131 -377
136 -558 14 -95 -65 -93 -70 -47 138 78 359 261 487 477 333z m2952 -612 c643
-1770 811 -2711 635 -3568 -217 -1064 -1131 -2039 -2267 -2420 -320 -107 -829
-197 -872 -155 -14 14 -2 17 252 65 1072 203 2174 1002 2572 1864 454 987 419
1533 -250 3833 -89 306 -162 566 -162 578 0 44 22 -3 92 -197z m-2898 143
c228 -106 297 -401 141 -601 -41 -53 -75 -104 -75 -113 0 -9 -9 -17 -20 -17
-11 0 -14 36 -7 89 30 221 -196 368 -387 252 -88 -54 -112 -108 -102 -234 10
-111 -12 -141 -43 -60 -10 26 -33 53 -50 60 -84 32 -132 247 -89 403 62 228
379 339 632 221z m-806 -256 c30 -48 -7 -103 -74 -111 -66 -8 -106 56 -73 117
26 50 114 47 147 -6z m1328 -17 c8 -66 -40 -106 -106 -90 -96 24 -51 160 50
148 37 -4 52 -19 56 -58z m-658 -423 c47 -108 39 -120 -75 -103 -118 17 -116
13 -73 108 49 108 100 107 148 -5z m-4948 -335 c0 -25 -55 -31 -355 -35 -344
-6 -400 3 -347 57 28 27 702 6 702 -22z m4913 -852 c13 -881 40 -1347 120
-2058 224 -2000 -179 -3294 -1071 -3431 -183 -28 -214 5 -44 47 912 225 1267
1453 1022 3534 -78 659 -95 956 -107 1836 -7 499 -6 920 4 937 55 98 63 0 76
-865z m-3305 488 c-145 -1188 65 -2373 542 -3066 44 -64 60 -110 60 -174 l-1
-86 -38 50 c-245 319 -515 984 -620 1532 -106 546 -90 1483 30 1864 23 71 40
-9 27 -120z m6751 -588 c175 -817 172 -1415 -11 -1963 -56 -170 -97 -248 -72
-140 161 715 169 1394 23 2218 -16 92 -29 180 -29 195 0 74 27 -19 89 -310z
m-8699 37 c144 -1374 1084 -2682 2425 -3374 119 -61 145 -83 145 -123 0 -62 5
-63 -197 46 -1448 783 -2418 2174 -2423 3471 0 158 32 145 50 -20z m3378
-3514 c437 -311 1029 -528 1533 -563 198 -14 220 -24 181 -86 -37 -58 -493 5
-872 121 -529 162 -1190 580 -1190 753 l0 72 95 -92 c52 -51 166 -143 253
-205z m-217 -250 c62 -43 123 -83 136 -87 13 -5 18 -14 11 -22 -25 -26 -278
110 -278 150 0 50 1 50 131 -41z m252 -392 c446 -184 1057 -356 1422 -400 134
-16 135 -19 51 -167 -515 -905 -1691 -516 -1827 604 l-14 117 78 -33 c42 -18
173 -72 290 -121z"/>
<path d="M1193 11407 c-31 -32 -15 -4427 17 -4427 26 0 30 260 30 2220 0 1221
-7 2220 -17 2220 -9 0 -22 -6 -30 -13z"/>
<path d="M2693 11365 c-15 -72 -15 -4167 0 -4290 38 -303 47 117 47 2125 0
2015 -7 2354 -47 2165z"/>
<path d="M1453 10487 c-1 -2 0 -153 3 -335 l6 -332 519 0 519 0 0 335 0 335
-522 0 c-287 0 -523 -1 -525 -3z m923 -332 l5 -195 -400 0 -401 0 0 187 c0
234 -38 215 409 208 l381 -5 6 -195z"/>
<path d="M1920 10220 l0 -80 -140 0 -140 0 0 -68 0 -68 335 9 335 9 6 139 6
139 -201 0 -201 0 0 -80z"/>
<path d="M1855 9258 c-80 -46 -133 -248 -62 -234 19 3 44 37 57 75 12 38 33
72 46 76 26 9 34 105 9 104 -8 0 -31 -9 -50 -21z"/>
<path d="M2020 9244 c0 -19 18 -51 41 -70 22 -19 45 -61 52 -93 13 -65 62 -96
80 -51 6 17 6 61 -2 99 -19 105 -171 207 -171 115z"/>
<path d="M2028 8948 c-34 -23 -53 -25 -93 -7 -67 31 -151 -8 -114 -52 67 -81
319 -69 319 16 0 66 -52 86 -112 43z"/>
<path d="M1420 8251 c-31 -17 -58 -21 -72 -9 -22 18 -48 -99 -48 -216 0 -81
102 -166 200 -166 187 0 279 238 135 347 -85 65 -153 79 -215 44z m111 -53
c12 -19 -22 -57 -51 -57 -5 0 -22 7 -38 17 -35 22 -11 62 38 62 21 0 44 -10
51 -22z m109 -78 c28 -52 6 -134 -47 -170 -100 -71 -233 0 -233 124 l0 67 59
-30 c61 -32 161 -14 161 29 0 34 37 22 60 -20z"/>
<path d="M1753 8246 c-29 -29 -14 -386 16 -386 20 0 31 28 35 95 9 149 96 155
96 6 0 -76 7 -101 30 -101 23 0 30 25 30 108 0 121 -31 162 -110 147 -45 -9
-50 -3 -50 57 0 65 -22 99 -47 74z"/>
<path d="M2000 8009 c0 -60 0 -116 -1 -124 -1 -8 13 -18 30 -21 25 -6 31 13
31 96 0 95 3 102 45 96 39 -5 45 -18 45 -96 0 -69 8 -91 35 -96 30 -6 35 9 35
96 0 95 3 102 45 96 39 -5 45 -18 45 -96 0 -67 8 -90 30 -90 23 0 29 23 27 96
-4 136 -21 148 -207 151 l-160 2 0 -110z"/>
<path d="M2433 8083 c-83 -91 -13 -231 110 -219 99 9 104 72 5 68 -41 -1 -78
8 -82 21 -6 17 16 20 73 13 96 -13 124 26 73 104 -40 61 -130 67 -179 13z
m100 -59 c-66 -8 -94 11 -53 36 17 10 44 8 69 -6 39 -23 38 -24 -16 -30z"/>
<path d="M7020 8125 c-169 -86 -233 -282 -152 -465 25 -58 31 -62 31 -24 2 82
57 182 125 223 175 107 476 5 476 -161 0 -80 34 -90 51 -14 79 358 -215 603
-531 441z m228 -37 c32 -83 13 -168 -37 -168 -57 0 -80 53 -61 140 14 66 77
84 98 28z"/>
</g>
</svg>
