<?xml version="1.0" standalone="no"?>
<!DOCTYPE svg PUBLIC "-//W3C//DTD SVG 20010904//EN"
 "http://www.w3.org/TR/2001/REC-SVG-20010904/DTD/svg10.dtd">
<svg version="1.0" xmlns="http://www.w3.org/2000/svg"
 width="225.000000pt" height="225.000000pt" viewBox="0 0 225.000000 225.000000"
 preserveAspectRatio="xMidYMid meet">
<g transform="translate(0.000000,225.000000) scale(0.100000,-0.100000)"
fill="#000000" stroke="none">
<path d="M962 2180 c-167 -24 -370 -108 -476 -199 -33 -28 -64 -48 -69 -44 -5
3 -27 43 -48 88 -43 93 -66 115 -122 115 -76 0 -127 -46 -127 -115 0 -43 61
-183 105 -241 l23 -31 -59 -119 c-121 -246 -156 -489 -105 -729 76 -355 333
-654 666 -776 396 -144 827 -50 1122 245 366 366 417 925 125 1364 -68 103
-93 122 -153 122 -103 0 -159 -108 -100 -191 123 -171 161 -249 190 -391 89
-431 -207 -871 -647 -962 -387 -80 -772 128 -927 500 -85 205 -80 445 14 648
18 40 38 76 43 79 5 3 31 -12 57 -33 277 -229 722 -278 977 -107 116 78 179
196 179 335 0 131 -45 239 -132 318 -49 43 -161 97 -238 113 -76 16 -223 22
-298 11z m266 -238 c116 -45 167 -113 160 -214 -3 -45 -11 -66 -34 -95 -108
-135 -378 -146 -607 -26 -72 38 -167 116 -167 138 0 18 87 96 143 129 155 91
370 120 505 68z"/>
</g>
</svg>
