<?xml version="1.0" standalone="no"?>
<!DOCTYPE svg PUBLIC "-//W3C//DTD SVG 20010904//EN"
 "http://www.w3.org/TR/2001/REC-SVG-20010904/DTD/svg10.dtd">
<svg version="1.0" xmlns="http://www.w3.org/2000/svg"
 width="600.000000pt" height="600.000000pt" viewBox="0 0 600.000000 600.000000"
 preserveAspectRatio="xMidYMid meet">
<g transform="translate(0.000000,600.000000) scale(0.050000,-0.050000)"
fill="#000000" stroke="none">
<path d="M6650 11257 c-1138 -127 -3017 -438 -3358 -556 -672 -232 -1159 -817
-1282 -1541 -136 -793 -216 -3108 -122 -3480 229 -902 839 -1347 2016 -1471
l114 -12 11 -233 c7 -129 19 -546 27 -928 13 -660 16 -696 56 -750 84 -113
287 -126 380 -24 35 39 39 94 53 765 8 398 17 819 20 935 l5 213 580 12 c319
7 884 19 1257 26 l676 13 0 -248 c0 -136 -3 -387 -6 -558 -4 -170 -7 -749 -7
-1287 l0 -976 65 -59 c118 -104 339 -66 395 69 21 49 27 263 29 963 3 956 23
1524 59 1616 12 31 22 155 22 275 0 170 6 219 27 219 483 0 1223 151 1531 313
840 440 1098 1195 1004 2931 -123 2251 -374 2910 -1244 3257 -475 190 -1180
414 -1608 511 -134 30 -456 32 -700 5z m704 -128 c578 -120 993 -545 1133
-1164 134 -587 282 -3044 216 -3575 -107 -861 -664 -1492 -1466 -1661 -596
-125 -3818 -220 -4167 -122 -518 145 -893 523 -1053 1063 -112 380 -13 3008
137 3607 169 680 672 1188 1339 1354 511 126 2179 394 3097 497 333 37 585 37
764 1z m1021 -392 c390 -268 536 -701 654 -1947 83 -878 100 -1193 100 -1930
l1 -710 -54 -196 c-204 -738 -747 -1290 -1344 -1365 -146 -18 -141 -3 20 70
571 260 980 871 1070 1601 41 335 5 1586 -73 2560 -99 1225 -198 1585 -539
1951 -50 53 -90 100 -90 103 0 13 170 -79 255 -137z m399 -107 c897 -360 1100
-817 1234 -2780 127 -1852 -2 -2456 -638 -2983 -330 -274 -562 -332 -1181
-294 l-218 14 100 34 c560 191 1036 872 1127 1609 74 602 -82 2957 -242 3660
-67 296 -204 558 -393 755 -113 118 -120 118 211 -15z m-1313 -6530 c-2 -137
-10 -257 -19 -266 -20 -20 -163 -10 -162 11 0 8 0 128 0 266 l0 251 92 -6 93
-6 -4 -250z m-3069 -25 l-2 -245 -90 0 -90 0 -6 245 -5 245 97 0 98 0 -2 -245z
m-8 -1030 c6 -653 3 -685 -74 -685 -84 0 -88 25 -94 686 l-6 634 84 0 85 0 5
-635z m3048 590 c-20 -68 -56 -1978 -41 -2191 16 -226 -56 -328 -151 -214 -26
31 -15 2174 12 2365 l12 85 90 0 c85 0 90 -3 78 -45z"/>
<path d="M6710 11026 c-33 -4 -276 -35 -540 -68 -1011 -125 -2514 -379 -2786
-470 -584 -195 -1015 -669 -1136 -1251 -139 -664 -236 -3130 -138 -3497 212
-795 751 -1100 1884 -1068 1947 55 2985 118 3301 200 764 198 1256 841 1298
1698 32 657 -124 2916 -235 3390 -179 769 -811 1178 -1648 1066z m690 -150
c432 -134 741 -478 848 -946 121 -529 273 -3038 213 -3521 -97 -793 -636
-1356 -1401 -1466 -536 -78 -3317 -186 -3678 -144 -633 74 -1034 422 -1172
1021 -80 347 21 2724 142 3350 112 578 545 1062 1092 1218 394 113 2450 438
3406 539 144 15 417 -11 550 -51z"/>
<path d="M7400 10085 c-57 -21 -59 -61 -60 -1149 0 -1161 0 -1156 91 -1156
110 0 109 -12 109 1169 l0 1089 -44 31 c-48 33 -51 34 -96 16z"/>
<path d="M6150 9939 c-327 -47 -1366 -188 -1750 -238 -626 -82 -650 -86 -675
-117 -42 -53 -36 -1910 6 -1953 40 -39 -10 -41 654 27 311 33 930 92 1375 132
735 67 813 78 845 114 42 48 55 1961 14 2037 -26 49 -113 49 -469 -2z m370
-121 c0 -51 -6 -60 -35 -48 -19 7 -62 18 -95 23 -55 10 -761 -70 -1270 -143
-286 -41 -1065 -145 -1200 -160 -242 -26 -35 27 260 68 624 85 1381 186 1829
244 253 33 463 64 468 69 25 25 43 3 43 -53z m0 -117 c0 -24 4 -24 -850 -132
-396 -50 -883 -113 -1083 -140 -200 -26 -425 -54 -502 -61 l-139 -13 -13 -241
c-18 -331 -16 -1310 2 -1321 14 -8 203 8 1195 107 716 70 1373 124 1385 111
33 -33 -103 -48 -1975 -220 -302 -28 -588 -55 -635 -60 l-85 -10 0 871 0 871
57 -41 c32 -22 61 -37 65 -33 5 4 85 17 178 28 94 12 413 54 710 94 1512 203
1690 223 1690 190z m-180 -181 c0 -33 -10 -60 -21 -60 -12 0 -16 9 -9 20 7 11
4 20 -7 20 -10 0 -24 -13 -30 -30 -19 -50 -73 -36 -73 19 0 52 42 94 55 55 5
-13 23 -23 42 -22 21 1 24 5 8 11 -27 11 -15 47 16 47 11 0 19 -27 19 -60z
m87 30 c16 -40 -6 -94 -34 -84 -36 11 -41 114 -6 114 16 0 34 -13 40 -30z m90
-655 c-1 -302 -8 -496 -16 -435 -19 152 -11 980 9 980 6 0 9 -245 7 -545z
m-97 485 c0 -11 -16 -20 -35 -20 -37 0 -297 -29 -1005 -110 -236 -27 -470 -53
-520 -57 -49 -4 -103 -12 -120 -19 -16 -6 -57 -11 -90 -11 -33 1 -64 0 -70 -3
-85 -33 -342 -14 -336 25 7 49 100 65 160 28 26 -16 44 -12 76 17 36 32 40 33
29 4 -17 -42 -1 -43 40 -3 26 27 31 27 31 3 0 -24 15 -26 69 -14 38 8 75 10
82 3 7 -7 24 4 39 24 25 34 31 34 71 7 24 -17 54 -27 66 -23 13 4 230 30 483
58 253 28 568 63 700 79 306 35 330 36 330 12z m-2243 -156 c7 -51 -28 -104
-68 -104 -38 0 -55 71 -29 120 29 54 88 44 97 -16z m2159 -82 c-6 -36 -9 -35
-74 9 l-67 47 67 17 c72 19 87 4 74 -73z m-562 29 c58 3 122 11 143 18 32 10
38 3 36 -38 -2 -40 -14 -51 -51 -51 -26 0 -60 -16 -74 -35 -24 -30 -30 -31
-47 -5 -12 19 -43 27 -83 23 -56 -6 -62 -2 -53 35 6 23 3 42 -7 42 -10 0 -18
-22 -18 -50 0 -70 -34 -63 -44 9 -9 60 30 91 74 60 11 -8 67 -12 124 -8z
m-859 -121 c0 -60 -121 -76 -143 -18 -18 46 -4 57 74 63 61 4 69 -1 69 -45z
m485 10 c0 -34 -14 -40 -85 -41 -47 0 -119 -13 -160 -28 -73 -26 -75 -25 -75
20 0 39 15 50 85 66 154 34 235 29 235 -17z m-670 -32 c0 -28 -16 -40 -65 -44
-80 -8 -98 67 -20 82 67 12 85 5 85 -38z m-154 -13 c-5 -37 -20 -46 -86 -49
-44 -2 -118 -10 -165 -18 -78 -12 -85 -10 -85 29 0 24 7 44 15 45 8 1 72 6
143 9 70 4 132 12 138 18 25 26 46 8 40 -34z m1447 -28 c47 -43 51 -218 6
-283 -40 -57 -139 -60 -168 -5 -90 167 40 398 162 288z m-243 -47 c15 -29 15
-52 -1 -81 -16 -31 -16 -49 2 -70 37 -44 6 -123 -56 -144 -109 -38 -193 46
-133 132 18 26 21 45 8 53 -28 17 -25 97 4 126 40 40 152 30 176 -16z m421 -2
c21 -40 23 -40 49 -5 49 67 55 11 8 -67 -33 -55 -37 -68 -12 -49 41 33 94 1
94 -57 0 -89 -119 -92 -121 -3 0 20 -14 9 -34 -27 -26 -47 -35 -53 -41 -25 -4
19 12 61 35 93 22 32 41 65 41 74 0 9 -12 -1 -27 -21 -35 -49 -93 -27 -93 34
0 88 64 121 101 53z m-1822 -117 c57 -106 15 -284 -73 -310 -106 -31 -175 190
-95 305 40 57 139 60 168 5z m548 -32 c-13 -34 31 -153 51 -140 8 4 16 -18 18
-50 5 -58 -113 -93 -143 -44 -41 67 -34 238 10 259 56 25 80 16 64 -25z m493
-20 c0 -27 -9 -49 -20 -49 -11 0 -20 28 -20 61 0 36 8 56 20 49 11 -7 20 -34
20 -61z m-889 30 c24 -40 -10 -119 -51 -119 -31 0 -40 14 -40 57 0 79 56 117
91 62z m749 -39 c0 -33 -9 -60 -20 -60 -11 0 -20 27 -20 60 0 33 9 60 20 60
11 0 20 -27 20 -60z m80 11 c0 -27 -9 -54 -20 -61 -25 -16 -48 40 -33 80 18
47 53 35 53 -19z m-740 18 c0 -6 -15 -33 -32 -60 -32 -48 -31 -49 20 -49 62 0
74 -77 20 -122 -28 -23 -38 -20 -68 17 l-36 44 -10 -42 c-6 -22 -21 -35 -32
-28 -23 14 92 251 121 251 9 0 17 -5 17 -11z m536 -42 c-9 -78 -56 -85 -56 -9
0 43 10 62 31 62 23 0 30 -16 25 -53z m-1181 -422 c-4 -52 -8 -9 -8 95 0 105
4 147 8 95 4 -52 4 -138 0 -190z m1405 84 c-8 -51 -27 -101 -42 -111 -37 -23
-103 -23 -89 0 6 10 4 22 -4 25 -9 4 -36 39 -60 77 l-44 70 115 21 c143 27
141 29 124 -82z m971 16 c-29 -30 -57 34 -29 67 26 32 28 31 35 -10 3 -25 1
-51 -6 -57z m-651 -3 c0 -62 -53 -115 -92 -91 -54 33 -56 107 -3 127 57 21 95
7 95 -36z m433 4 c6 -39 -1 -44 -64 -39 -39 3 -86 -6 -105 -20 -47 -35 -59
-33 -74 12 -12 38 -13 38 -51 0 -43 -43 -104 -32 -95 18 4 19 30 34 66 38 33
3 105 13 160 23 134 24 155 20 163 -32z m-1077 -100 c6 -38 -7 -43 -160 -55
-91 -7 -200 -18 -241 -24 -65 -9 -75 -5 -75 29 0 43 41 55 280 76 72 6 134 15
139 20 19 19 51 -7 57 -46z m-519 -88 c-14 -9 -39 -5 -55 8 -24 19 -26 19 -13
-4 13 -22 9 -26 -16 -16 -18 7 -33 6 -33 -2 0 -8 -54 -14 -120 -15 -118 0
-120 0 -120 55 0 60 18 70 56 32 17 -17 30 -18 45 -3 12 12 63 17 116 12 74
-7 101 -2 124 26 27 33 29 32 36 -20 3 -32 -5 -64 -20 -73z m1983 65 c0 -9
-124 -28 -275 -42 -151 -13 -320 -32 -375 -42 -55 -10 -190 -23 -300 -29 -110
-6 -308 -24 -440 -40 -449 -54 -1265 -113 -980 -70 66 10 279 32 473 50 194
18 374 36 400 40 26 4 263 27 527 50 264 23 570 54 680 69 252 33 290 35 290
14z m-100 -183 c0 -28 -20 -35 -100 -37 -55 -1 -100 7 -100 17 0 11 -10 20
-21 20 -12 0 -16 -9 -9 -20 7 -11 10 -21 6 -21 -143 -27 -236 -19 -236 21 0
39 8 42 90 33 49 -6 93 -4 98 3 21 34 272 19 272 -16z m-1034 -54 c50 5 101
16 112 23 13 8 22 -3 22 -28 0 -22 -7 -42 -15 -42 -8 -1 -33 -5 -55 -10 -182
-34 -233 -17 -201 65 10 27 17 29 29 9 11 -18 45 -23 108 -17z m-181 -50 c-6
-24 -28 -36 -66 -36 -31 0 -70 -5 -87 -12 -24 -9 -32 0 -32 38 0 46 7 49 97
48 84 -1 96 -7 88 -38z m-585 -31 c-2 -65 -277 -118 -313 -60 -8 12 -16 12
-24 -1 -30 -47 -193 -37 -200 13 -6 44 -1 46 70 36 62 -9 233 0 442 24 14 2
25 -4 25 -12z"/>
<path d="M5908 8912 c-21 -55 1 -182 32 -182 39 0 69 91 52 157 -14 56 -66 72
-84 25z"/>
<path d="M5653 8904 c-16 -26 20 -70 45 -55 32 19 27 71 -7 71 -16 0 -33 -7
-38 -16z"/>
<path d="M5662 8781 c-34 -21 -15 -81 26 -81 44 0 61 40 29 71 -17 17 -37 21
-55 10z"/>
<path d="M4249 8733 c-17 -90 5 -157 48 -149 48 10 48 203 -1 212 -25 5 -37
-12 -47 -63z"/>
<path d="M3010 9636 c-22 -12 -47 -32 -55 -44 -37 -56 -17 -2024 22 -2059 48
-43 109 -42 150 4 56 62 50 2026 -7 2083 -46 46 -55 47 -110 16z"/>
<path d="M6267 7525 c-160 -130 -88 -385 109 -385 148 0 244 137 202 288 -34
122 -211 177 -311 97z"/>
<path d="M5106 7451 c-155 -68 -166 -319 -17 -387 242 -110 429 263 194 385
-73 37 -94 38 -177 2z"/>
<path d="M3888 7292 c-192 -192 69 -472 267 -287 50 46 76 149 57 224 -36 144
-209 178 -324 63z"/>
<path d="M4233 6476 c-42 -9 -102 -34 -132 -55 l-55 -39 -41 54 c-65 85 -134
16 -79 -79 34 -60 34 -65 -8 -151 -226 -466 457 -872 752 -447 153 222 86 647
-93 590 -25 -8 -37 -2 -37 19 0 73 -179 136 -307 108z m156 -116 c100 -38 38
-140 -85 -140 -153 1 -222 74 -119 125 76 38 133 42 204 15z m205 -117 c197
-316 -151 -692 -456 -493 -90 58 -138 157 -138 284 0 141 37 187 107 132 121
-96 322 -73 398 45 52 80 58 82 89 32z"/>
<path d="M4829 6434 c-32 -84 2 -824 39 -831 55 -10 68 27 57 167 -16 203 24
290 134 290 90 0 109 -42 104 -238 -5 -184 18 -241 87 -215 44 17 43 370 -1
456 -47 89 -148 126 -241 87 -40 -16 -78 -30 -83 -30 -6 0 -5 64 3 143 8 95 5
151 -10 170 -29 34 -76 35 -89 1z"/>
<path d="M5362 6154 c-35 -35 -30 -503 7 -533 53 -44 71 -2 71 161 0 229 71
336 183 276 46 -24 56 -67 62 -268 5 -156 6 -160 55 -160 49 0 50 3 56 184 5
169 10 188 55 223 112 88 176 12 189 -225 9 -165 14 -182 50 -182 69 0 60 409
-11 480 -75 76 -172 85 -260 25 l-72 -49 -55 47 c-63 55 -111 59 -193 16 -32
-16 -59 -22 -59 -12 0 30 -53 42 -78 17z"/>
<path d="M6305 6140 c-150 -91 -150 -387 0 -481 111 -70 365 -14 365 81 0 56
-63 68 -120 23 -78 -61 -142 -54 -217 22 l-63 65 200 10 200 10 6 64 c19 189
-200 310 -371 206z m196 -80 c111 -60 87 -100 -60 -100 -149 0 -167 14 -101
80 44 44 102 51 161 20z"/>
</g>
</svg>
