<?xml version="1.0" standalone="no"?>
<!DOCTYPE svg PUBLIC "-//W3C//DTD SVG 20010904//EN"
 "http://www.w3.org/TR/2001/REC-SVG-20010904/DTD/svg10.dtd">
<svg version="1.0" xmlns="http://www.w3.org/2000/svg"
 width="600.000000pt" height="600.000000pt" viewBox="0 0 600.000000 600.000000"
 preserveAspectRatio="xMidYMid meet">
<g transform="translate(0.000000,600.000000) scale(0.050000,-0.050000)"
fill="#000000" stroke="none">
<path d="M5190 11326 c-1548 -194 -2674 -1592 -2899 -3598 -17 -155 -31 -324
-31 -376 0 -104 -80 -261 -307 -602 -161 -243 -197 -288 -236 -289 -17 -1 -44
-15 -58 -32 -14 -17 -60 -58 -102 -91 l-77 -61 -75 45 c-41 24 -95 62 -119 83
-23 22 -52 34 -63 27 -11 -7 -42 -3 -69 10 -157 71 -514 -333 -514 -584 0 -48
-10 -123 -22 -166 -47 -168 76 -327 361 -468 270 -134 547 -77 822 170 164
148 210 501 81 634 l-68 70 63 72 c35 39 63 81 63 93 0 12 45 71 100 131 55
60 125 152 155 203 l55 93 15 -230 c89 -1394 629 -2815 1368 -3600 830 -881
1523 -1189 2367 -1052 1329 215 2286 1424 2939 3709 98 341 301 1121 301 1154
0 5 21 9 47 9 60 0 136 75 169 168 15 39 54 99 87 132 53 53 60 72 54 155 -9
146 26 195 109 151 203 -110 1128 25 1317 192 495 436 132 1273 -504 1162 -71
-13 -165 -27 -209 -33 -44 -5 -111 -18 -150 -28 -38 -10 -108 -19 -154 -19
-431 0 -930 -427 -1019 -871 -21 -104 -47 -176 -77 -209 -73 -80 -92 -134 -88
-245 1 -58 -4 -157 -12 -221 -14 -102 -10 -124 27 -174 56 -76 60 -46 -67
-488 -184 -643 -472 -1450 -689 -1932 -206 -458 -531 -1047 -602 -1090 -30
-19 -37 -34 133 300 767 1504 1091 3801 738 5219 -410 1649 -1701 2660 -3160
2477z m700 -147 c1201 -171 2150 -1239 2398 -2699 258 -1522 -184 -3882 -968
-5170 -723 -1189 -2033 -1478 -2975 -654 -168 147 -158 167 18 35 810 -610
1846 -527 2537 202 1027 1085 1656 3997 1248 5777 -430 1873 -1874 2837 -3456
2308 -1070 -357 -1882 -1495 -2120 -2968 -27 -167 -147 -489 -151 -404 -2 71
100 662 149 851 397 1559 1322 2527 2610 2730 105 16 576 11 710 -8z m-1060
-321 c-499 -168 -892 -430 -1258 -839 -126 -141 -88 -69 55 104 283 341 757
646 1193 769 179 50 186 25 10 -34z m1331 -23 c417 -110 770 -349 1114 -755
627 -739 949 -2227 795 -3667 -15 -142 -33 -262 -38 -268 -6 -6 -5 241 2 547
38 1736 -394 3016 -1254 3713 -573 464 -1336 563 -1970 255 -152 -73 -226
-124 -530 -359 -179 -138 -194 -126 -39 30 282 287 632 468 1079 556 145 29
653 -3 841 -52z m-281 -198 c859 -225 1555 -1268 1750 -2621 234 -1634 -232
-3952 -925 -4599 -291 -272 -635 -119 -750 332 -39 156 -29 178 75 160 53 -9
197 -26 522 -62 184 -21 168 -266 168 2595 l0 2513 -43 55 c-50 62 -71 62
-689 -21 l-102 -13 -13 177 c-58 766 -465 1246 -1060 1247 l-163 1 50 39 c287
221 776 303 1180 197z m-1788 -322 c-301 -339 -795 -1067 -1005 -1477 -96
-190 -107 -153 -20 75 215 562 534 1037 923 1370 191 164 229 176 102 32z
m984 -56 c431 -147 686 -617 683 -1258 0 -183 -30 -117 -56 129 -93 851 -595
1266 -1278 1053 -450 -140 -751 -544 -1474 -1983 -481 -956 -850 -1577 -1050
-1770 -81 -77 -92 -30 -14 62 169 200 356 518 703 1198 387 757 721 1355 929
1660 31 44 85 134 121 199 338 612 903 891 1436 710z m-3 -239 c273 -134 441
-448 497 -925 12 -107 10 -115 -29 -115 -22 0 -41 8 -41 19 0 87 -151 99 -726
54 -236 -18 -321 -32 -335 -54 -31 -48 -25 -5090 6 -5114 24 -19 646 -65 871
-65 85 0 115 9 154 48 30 30 77 51 124 55 l76 7 13 -130 c47 -471 336 -801
682 -777 117 9 117 3 -1 -77 -957 -648 -2111 -137 -2707 1201 -686 1540 -566
4102 255 5436 275 446 767 631 1161 437z m2179 -335 c1134 -1692 782 -5657
-605 -6816 -995 -832 -2328 -443 -2973 866 -137 278 -146 349 -12 102 596
-1109 1568 -1571 2479 -1179 788 340 1339 1350 1609 2952 141 837 112 2202
-61 2885 -139 548 -457 1270 -618 1404 -17 14 -31 36 -30 48 1 32 80 -67 211
-262z m-4180 -472 c-75 -175 -198 -540 -263 -783 -21 -77 -41 -125 -45 -107
-18 91 335 1105 372 1068 4 -5 -24 -85 -64 -178z m2168 -2760 l0 -2526 -105 8
c-58 4 -217 14 -355 21 l-250 14 -5 2475 c-5 2347 -3 2475 30 2477 19 1 157
13 305 27 149 14 295 27 325 28 l55 3 0 -2527z m210 2392 c67 -206 59 -203
500 -205 209 -1 395 -2 414 -1 52 2 111 76 125 158 22 123 32 143 72 143 38 0
39 -42 39 -2490 0 -2216 -3 -2490 -30 -2490 -35 0 -62 56 -80 167 -27 163 -55
173 -500 173 -479 0 -499 -9 -539 -230 -16 -89 -42 -130 -83 -130 -24 0 -28
393 -28 2521 0 2391 2 2522 35 2515 23 -4 49 -48 75 -131z m959 30 c-24 -110
-47 -155 -79 -155 -37 0 -37 -2 1 90 39 94 49 89 -151 69 -102 -10 -177 -10
-188 1 -32 32 36 43 345 56 l86 4 -14 -65z m-510 -70 c-1 -71 -6 -85 -19 -55
-24 56 -24 150 0 150 11 0 19 -43 19 -95z m-279 5 c0 -87 -29 -91 -58 -7 -28
80 -29 77 18 77 32 0 40 -13 40 -70z m-2258 -118 c-418 -1119 -379 -3401 82
-4762 823 -2429 3185 -2597 4495 -320 399 692 707 1534 1003 2735 53 218 96
355 111 355 57 0 58 4 -102 -610 -320 -1226 -620 -2005 -1031 -2670 -1359
-2201 -3753 -1939 -4567 500 -475 1423 -496 3767 -43 4749 81 176 115 191 52
23z m7446 -156 c280 -83 440 -512 300 -807 -245 -517 -985 -326 -1024 264 -25
385 338 657 724 543z m-598 -100 c-52 -46 -141 -112 -197 -145 -127 -77 -177
-161 -193 -329 -12 -129 -13 -130 -29 -55 -52 245 136 532 383 585 64 13 120
25 124 26 4 1 -35 -36 -88 -82z m-359 -39 c-263 -312 -144 -902 204 -1019 77
-26 53 -49 -58 -56 -59 -3 -160 97 -145 143 10 32 6 38 -20 29 -22 -9 -32 -2
-32 23 0 32 -14 35 -111 27 -88 -7 -119 -2 -153 28 -41 38 -42 38 -18 -7 14
-27 94 -80 193 -128 186 -90 215 -123 84 -94 -556 125 -593 867 -52 1068 165
61 170 60 108 -14z m-546 -328 c-6 -27 -26 -59 -45 -69 -80 -43 -180 -298
-180 -458 0 -46 -7 -63 -20 -50 -51 51 44 383 152 530 80 109 107 123 93 47z
m-6343 -292 c-88 -528 -109 -1351 -52 -1987 35 -383 35 -458 -1 -310 -35 145
-84 588 -100 900 -22 407 63 1372 136 1555 60 150 63 121 17 -158z m6450 -283
c29 -54 28 -55 -11 -30 -47 29 -188 -89 -210 -177 -14 -55 -44 -59 -107 -16
-25 18 -44 22 -44 10 0 -46 185 -141 274 -141 47 0 86 9 86 20 0 11 -20 20
-45 20 -106 1 -105 32 4 148 l106 111 55 -44 54 -45 -67 -75 c-76 -85 -86
-124 -27 -105 60 19 53 -79 -9 -141 -104 -104 -355 -55 -493 96 -82 90 -90
154 -31 268 l49 97 14 -75 c20 -102 35 -97 186 67 144 156 141 156 216 12z
m753 -4 c69 -8 161 -34 205 -57 l80 -43 -70 -7 c-150 -15 -440 104 -440 180 0
11 23 2 50 -20 31 -24 99 -45 175 -53z m-7447 -270 c-29 -349 -12 -1248 28
-1490 55 -323 162 -755 267 -1066 38 -115 66 -223 62 -241 -19 -89 -278 848
-362 1311 -109 598 -108 1575 1 1752 24 39 25 -15 4 -266z m6242 -252 c0 -115
112 -183 272 -165 80 10 93 77 14 78 -31 0 -83 13 -116 28 -71 33 -37 40 43
10 31 -12 90 -22 132 -23 l74 -1 -34 -58 c-102 -172 -445 -37 -445 175 0 63 4
69 30 48 17 -14 30 -55 30 -92z m-6459 -498 c68 -994 337 -1944 817 -2884 181
-353 182 -392 5 -107 -526 845 -865 1994 -915 3098 -11 240 -8 283 25 353 l37
80 5 -110 c2 -60 14 -254 26 -430z m-1439 -187 c-18 -85 -109 -183 -157 -170
-30 8 -51 -8 -85 -62 -24 -40 -49 -68 -55 -63 -19 20 146 251 215 302 86 64
98 63 82 -7z m307 -42 c47 -33 92 -74 98 -92 7 -17 22 -26 33 -19 24 15 26
-10 3 -46 -13 -21 -32 -17 -89 16 -45 27 -88 38 -113 30 -37 -11 -41 -4 -41
79 0 108 -1 107 109 32z m311 -21 c41 -41 49 -74 28 -128 -18 -47 -42 -39 -56
19 -7 28 -35 60 -63 73 -54 25 -63 47 -24 63 48 19 75 13 115 -27z m-549 -102
c7 -12 -10 -45 -38 -75 -44 -46 -52 -74 -58 -213 -5 -113 -12 -147 -24 -115
-18 52 -86 75 -170 58 -36 -7 -66 -1 -80 16 -26 31 93 62 160 41 34 -11 39 -3
39 59 0 77 -33 98 -44 28 -3 -24 -18 -48 -33 -53 -21 -7 -22 0 -5 32 12 23 22
61 22 85 0 36 5 40 29 20 24 -20 36 -10 70 58 41 80 102 108 132 59z m686
-158 c55 -75 31 -143 -75 -214 -95 -64 -113 -57 -65 24 23 39 36 84 30 100
-12 33 28 150 52 150 7 0 34 -27 58 -60z m-298 -163 c1 -53 -116 -141 -166
-125 -218 69 -259 128 -173 249 l41 56 149 -73 c94 -47 149 -86 149 -107z
m317 -171 c-63 -131 -404 -326 -571 -326 -217 0 -565 232 -565 377 l0 51 55
-63 c30 -34 133 -107 228 -160 95 -54 188 -113 206 -131 49 -49 165 -45 181 6
7 22 20 40 30 40 9 0 36 31 60 69 30 49 62 73 108 82 83 16 271 122 274 154 2
14 7 10 12 -9 5 -19 -3 -60 -18 -90z m-435 -124 c-41 -80 -75 -103 -148 -100
-32 2 -27 7 22 23 65 21 104 89 76 134 -8 13 7 21 38 21 l52 0 -40 -78z m7137
-264 c-358 -1087 -859 -1980 -1396 -2487 -99 -93 -72 -46 46 82 555 600 959
1349 1352 2507 60 177 81 226 90 216 6 -5 -36 -148 -92 -318z m-2898 -1128 c0
-61 -6 -70 -50 -70 -55 0 -59 13 -30 89 29 78 80 66 80 -19z m760 -15 c12 -47
26 -97 31 -112 5 -14 -2 -23 -15 -18 -13 4 -30 30 -37 56 -36 136 -38 159 -20
159 11 0 29 -38 41 -85z m-487 -582 c113 -218 254 -317 473 -329 187 -11 165
-51 -26 -49 -288 2 -513 247 -548 595 l-12 120 40 -137 c23 -75 55 -165 73
-200z m757 -1105 c-53 -41 -246 -138 -220 -111 21 22 233 142 250 142 6 0 -8
-14 -30 -31z"/>
<path d="M4805 8893 l-205 -19 0 -2417 0 -2416 45 -10 c50 -11 482 -49 489
-43 10 9 22 4879 12 4904 -11 31 -35 31 -341 1z m95 -2443 c0 -2217 0 -2230
-40 -2230 -59 0 -64 4431 -5 4446 19 5 37 10 40 12 3 1 5 -1001 5 -2228z"/>
<path d="M5626 7730 c-21 -16 -26 -74 -22 -260 l6 -240 359 -5 c273 -5 362 0
374 20 26 40 21 470 -6 487 -36 22 -679 21 -711 -2z m614 -249 l0 -138 -255
-2 -255 -1 0 140 0 140 255 0 255 0 0 -139z"/>
<path d="M5880 7550 c14 -16 40 -30 58 -30 19 0 44 -10 56 -22 12 -12 34 -16
47 -7 15 9 -11 28 -73 52 -118 45 -119 45 -88 7z"/>
<path d="M5973 6606 c-43 -43 -5 -181 40 -144 20 17 31 9 49 -35 51 -128 83
-148 94 -59 10 76 -51 178 -98 166 -27 -7 -38 0 -38 27 0 40 -27 66 -47 45z"/>
<path d="M5862 6507 c-52 -65 -59 -198 -10 -179 17 7 35 12 40 12 4 0 8 22 8
49 0 27 9 54 20 61 25 16 26 84 2 99 -11 6 -38 -12 -60 -42z"/>
<path d="M5860 6290 c0 -67 131 -98 217 -52 76 41 39 70 -93 73 -87 3 -124 -4
-124 -21z"/>
<path d="M5677 5239 c-64 -37 -87 -156 -42 -216 62 -84 222 -75 227 13 1 21 7
16 16 -15 22 -79 62 -74 62 7 0 51 9 72 30 72 21 0 30 -21 30 -72 0 -77 48
-90 52 -14 5 101 68 105 68 5 0 -33 9 -59 20 -59 11 0 20 27 20 60 0 33 7 60
16 60 8 0 25 -27 38 -60 16 -44 36 -60 71 -60 62 0 81 19 52 53 -16 20 -16 27
1 27 33 0 27 51 -10 81 -24 21 -40 21 -69 3 -23 -14 -42 -16 -49 -4 -7 11 -70
16 -141 13 l-129 -7 0 59 c0 68 -46 67 -56 -1 -6 -42 -9 -41 -57 16 -52 62
-93 73 -150 39z m128 -203 c-47 -47 -116 -35 -135 25 -17 53 3 79 60 79 26 0
54 11 62 24 10 16 22 4 34 -32 15 -46 11 -64 -21 -96z"/>
<path d="M5605 4895 c6 -19 99 -25 375 -25 276 0 369 6 375 25 6 19 -77 25
-375 25 -298 0 -381 -6 -375 -25z"/>
<path d="M10409 8454 c-312 -149 -368 -557 -114 -827 309 -329 829 -90 833
383 3 378 -371 609 -719 444z m398 -140 c14 -53 -19 -94 -75 -94 -56 0 -92 36
-92 93 0 94 143 95 167 1z m-327 -4 c30 -36 12 -121 -30 -137 -73 -28 -130 51
-90 126 25 48 85 54 120 11z m539 -175 c42 -74 -3 -162 -86 -171 -97 -12 -153
81 -113 186 29 75 154 66 199 -15z m-319 -15 c81 -81 29 -220 -82 -220 -59 0
-138 79 -138 138 0 109 141 161 220 82z m-333 -41 c120 -95 8 -293 -118 -210
-59 39 -68 157 -16 214 43 47 70 47 134 -4z m533 -219 c66 -66 48 -170 -34
-202 -127 -48 -232 134 -122 211 60 42 108 39 156 -9z m-343 -32 c142 -100 57
-298 -95 -219 -98 51 -109 182 -17 226 60 30 59 30 112 -7z"/>
<path d="M10691 8341 c-8 -12 -1 -16 18 -9 21 8 31 1 31 -22 0 -24 -10 -30
-35 -21 -27 10 -30 8 -11 -10 32 -33 91 -7 82 36 -7 39 -66 58 -85 26z"/>
<path d="M10858 8115 c-19 -37 -18 -41 4 -20 53 51 144 3 107 -57 -15 -25 -83
-23 -96 3 -5 11 -8 9 -5 -4 16 -84 132 -56 132 31 0 92 -101 126 -142 47z"/>
<path d="M10564 8096 c-55 -55 -16 -163 56 -153 67 10 93 62 64 125 -25 55
-80 68 -120 28z m86 -76 c0 -57 -63 -81 -82 -31 -18 47 7 95 47 87 22 -4 35
-25 35 -56z"/>
<path d="M10255 8058 c-78 -45 -23 -168 69 -155 60 9 77 112 24 151 -42 31
-47 31 -93 4z m92 -48 c16 -40 -5 -90 -37 -90 -14 0 -36 14 -50 30 -28 34 3
90 50 90 14 0 31 -13 37 -30z"/>
<path d="M10764 7836 c-49 -49 -4 -156 66 -156 35 0 90 55 90 90 0 70 -107
115 -156 66z m105 -50 c21 -55 -41 -103 -82 -62 -18 18 -27 47 -20 64 16 42
85 41 102 -2z"/>
<path d="M10450 7780 c-30 -33 -32 -49 -13 -91 33 -73 82 -85 126 -30 77 95
-31 211 -113 121z m103 -50 c15 -39 -28 -91 -63 -77 -32 12 -55 63 -39 89 18
29 89 21 102 -12z"/>
<path d="M9640 7724 c0 -9 13 -34 28 -55 38 -51 62 -25 29 29 -27 42 -57 56
-57 26z"/>
<path d="M9176 7086 c-18 -23 -17 -33 5 -48 42 -27 108 -13 115 24 8 44 -87
63 -120 24z"/>
</g>
</svg>
